<?xml version="1.0" encoding="UTF-8"?>
<svg width="200px" height="73px" viewBox="0 0 200 73" version="1.1" xmlns="http://www.w3.org/2000/svg" xmlns:xlink="http://www.w3.org/1999/xlink">
    <!-- Generator: Sketch 41 (35326) - http://www.bohemiancoding.com/sketch -->
    <title>logo</title>
    <desc>Created with Sketch.</desc>
    <defs>
        <linearGradient x1="50%" y1="0%" x2="50%" y2="100%" id="linearGradient-1">
            <stop stop-color="#FBAC3F" offset="0%"></stop>
            <stop stop-color="#FF3627" offset="100%"></stop>
        </linearGradient>
        <rect id="path-2" x="0.148356148" y="0.00194330221" width="199.661168" height="72.3991716" rx="36.1995858"></rect>
    </defs>
    <g id="Page-1" stroke="none" stroke-width="1" fill="none" fill-rule="evenodd">
        <g id="Logo" transform="translate(-75.000000, -59.000000)">
            <g id="logo" transform="translate(75.000000, 59.000000)">
                <g id="Group">
                    <g id="AwesomeiOS-Weekly-+-Leaves-Mask">
                        <mask id="mask-3" fill="white">
                            <use xlink:href="#path-2"></use>
                        </mask>
                        <use id="Mask" fill="url(#linearGradient-1)" xlink:href="#path-2"></use>
                        <text id="AwesomeiOS-Weekly" mask="url(#mask-3)" font-family="SFUIText-Bold, SF UI Text" font-size="20" font-weight="bold" fill="#FFFFFF">
                            <tspan x="34.3616825" y="32.1353997">AwesomeiOS</tspan>
                            <tspan x="165.514026" y="32.1353997" font-family="Helvetica" font-weight="normal"> </tspan>
                            <tspan x="66.4515263" y="56.1353997" font-family="SFUIText-Light, SF UI Text" font-weight="300">Weekly</tspan>
                        </text>
                        <g id="Leaves" mask="url(#mask-3)" fill="#124E72">
                            <g transform="translate(0.000000, 1.631321)">
                                <path d="M48.3487255,64.9210694 C48.3487255,65.9566502 48.7920406,66.9252594 49.6175846,67.3577637 C51.0413674,68.1036866 51.5948335,63.0766623 50.2217709,64.0440587 C49.8130595,64.3320179 49.496838,64.7820986 49.1343715,65.1511186 L48.3487255,64.9210694 Z" id="Path-10"></path>
                                <path d="M46.7937995,12.7987292 C47.6037335,13.4181872 50.6783677,13.1348117 49.4980258,10.9533527 C49.451856,10.8680236 47.6778289,10.3634597 47.5189589,10.5098643 C47.1952385,10.808185 47.1564925,11.3962873 46.9752593,11.8394988 L46.7937995,12.7987292 Z" id="Path-11"></path>
                                <path d="M28.3245003,10.5265659 C29.2356504,10.5265659 30.1661908,10.7550477 31.0579505,10.5265659 C31.5517125,10.4000569 32.2337669,8.96891862 31.9645697,8.31161574 C31.4297756,7.00580064 28.1517965,8.57729064 27.9840084,9.55736948 C27.8406653,10.3946605 27.9840084,11.2682046 27.9840084,12.1236222" id="Path-14"></path>
                                <path d="M18.0393957,3.53637343 C16.7117778,4.03552251 12.7019663,5.2340586 18.4621222,4.4225196 C19.0477165,4.34001616 19.4109104,2.66849833 18.5226088,2.66849833 L18.0393957,3.53637343 Z" id="Path-15"></path>
                                <path d="M0.112368645,8.70352492 C0.432592118,11.6097983 2.03524551,8.97304995 2.46862717,7.58649906 C2.92961064,6.11163961 0.851800223,5.51116329 0.851800223,8.25090106 L0.112368645,8.70352492 Z" id="Path-17"></path>
                                <path d="M3.28349708,26.7187851 C0.22992996,26.7187851 1.89011726,30.1159206 2.93552928,29.2202586 C4.78892711,27.6323506 6.18593283,26.0626881 3.96991794,26.0626881 L3.28349708,26.7187851 Z" id="Path-19"></path>
                                <path d="M10.3707275,40.2704655 C9.18529754,42.9284926 11.7558517,42.3074021 12.5387301,40.4000239 C13.1843555,38.8270439 11.4464587,38.7218584 11.0354004,39.7264863 L10.3707275,40.2704655 Z" id="Path-20"></path>
                                <path d="M4.36138172,58.2836934 C7.36997274,58.2836934 5.9866386,53.1597315 4.18739782,57.1940741 L4.36138172,58.2836934 Z" id="Path-22"></path>
                                <path d="M48.3535928,37.1301396 C48.3535928,39.4002397 49.9149049,37.3876643 50.0988688,36.2996371 C50.4723296,34.090859 48.8219243,34.3100039 48.5425284,36.0222493 L48.3535928,37.1301396 Z" id="Path-25"></path>
                                <path d="M33.8796374,51.1427843 C33.8796374,51.9139304 33.4864985,54.3020475 35.4509295,52.8054503 C36.7697801,51.800687 34.430813,48.8298839 34.430813,50.377061 L33.8796374,51.1427843 Z" id="Path-31"></path>
                                <path d="M23.2981068,64.311733 C20.8112697,64.311733 23.2635217,67.4781281 23.7995277,63.5787918 L23.2981068,64.311733 Z" id="Path-33"></path>
                                <path d="M22.6944132,56.8182873 C22.9048773,56.8182873 23.2665081,57.0650559 23.3258057,56.8182873 L23.7878089,57.1654471 C24.614228,53.7262834 23.2743465,53.0924775 22.6514444,55.8197687 L22.6944132,56.8182873 Z" id="Path-34"></path>
                                <path d="M35.781071,67.0078634 C35.8126762,67.4707432 35.7836754,67.9458898 35.8758864,68.3965029 C35.9751723,68.8816887 36.5939189,68.7560209 36.7913701,68.5896105 C37.4482216,68.036021 37.6869697,64.3637549 36.4124636,66.3860133 L35.781071,67.0078634 Z" id="Path-35"></path>
                                <path d="M43.0271704,63.3717977 C42.184349,63.724803 42.9932656,64.2565873 43.7608357,64.0570045 C44.441346,63.8800588 45.4076038,62.2882319 43.7331368,62.7456081 L43.0271704,63.3717977 Z" id="Path-36"></path>
                                <path d="M47.1057582,51.091817 C47.1057582,52.7821438 49.5063328,50.3202541 47.8561138,50.3202541 L47.1057582,51.091817 Z" id="Path-37"></path>
                                <path d="M43.2843084,0.149712694 C42.8739447,0.149712694 39.5724501,0.223445308 41.1213095,2.1419764 C41.5087421,2.6218788 44.8492528,3.33844699 44.4362979,1.37518703 C44.3310209,0.874681981 42.3020994,0.187263478 42.020458,0" id="Path-41"></path>
                                <path d="M48.3487255,64.9210694 C48.3487255,65.9566502 48.7920406,66.9252594 49.6175846,67.3577637 C51.0413674,68.1036866 51.5948335,63.0766623 50.2217709,64.0440587 C49.8130595,64.3320179 49.496838,64.7820986 49.1343715,65.1511186 L48.3487255,64.9210694 Z" id="Path-10"></path>
                                <path d="M48.3487255,64.9210694 C48.3487255,65.9566502 48.7920406,66.9252594 49.6175846,67.3577637 C51.0413674,68.1036866 51.5948335,63.0766623 50.2217709,64.0440587 C49.8130595,64.3320179 49.496838,64.7820986 49.1343715,65.1511186 L48.3487255,64.9210694 Z" id="Path-10"></path>
                                <path d="M151.76789,17.2027589 C151.76789,18.2383397 152.211205,19.2069489 153.036749,19.6394532 C154.460532,20.3853761 155.013998,15.3583518 153.640935,16.3257482 C153.232224,16.6137074 152.916002,17.0637881 152.553536,17.4328081 L151.76789,17.2027589 Z" id="Path-10"></path>
                                <path d="M100.606669,14.1530465 C100.606669,15.1886273 101.049984,16.1572366 101.875528,16.5897408 C103.299311,17.3356637 103.852777,12.3086394 102.479714,13.2760359 C102.071003,13.563995 101.754781,14.0140758 101.392315,14.3830957 L100.606669,14.1530465 Z" id="Path-10"></path>
                                <path d="M113.864912,26.9237171 C113.864912,27.9592979 114.308227,28.9279071 115.133771,29.3604114 C116.557554,30.1063343 117.11102,25.07931 115.737958,26.0467064 C115.329246,26.3346656 115.013025,26.7847463 114.650558,27.1537663 L113.864912,26.9237171 Z" id="Path-10"></path>
                                <path d="M136.715928,20.1634501 C136.305564,20.1634501 133.00407,20.2371828 134.552929,22.1557138 C134.940362,22.6356162 138.280872,23.3521844 137.867918,21.3889245 C137.762641,20.8884194 135.733719,20.2010009 135.452078,20.0137374" id="Path-41"></path>
                                <path d="M89.2982112,50.4699668 C88.8878475,50.4699668 85.5863529,50.5436995 87.1352124,52.4622305 C87.5226449,52.9421329 90.8631557,53.6587011 90.4502007,51.6954412 C90.3449238,51.1949361 88.3160022,50.5075176 88.0343608,50.3202541" id="Path-41"></path>
                                <path d="M74.636154,16.7325237 C74.2257904,16.7325237 70.9242957,16.8062563 72.4731552,18.7247874 C72.8605877,19.2046898 76.2010985,19.921258 75.7881435,17.9579981 C75.6828666,17.457493 73.653945,16.7700745 73.3723036,16.582811" id="Path-41"></path>
                                <path d="M194.388635,19.6722641 C194.888618,25.7981503 197.364176,20.9346386 197.21132,18.3227152 C197.205112,18.2166319 197.027144,18.2729634 196.950222,18.3227152 L196.479774,19.4724906 C196.09464,19.7215859 195.60827,19.4724906 195.172518,19.4724906 L194.388635,19.6722641 Z" id="Path-53"></path>
                                <path d="M183.530262,11.9636468 C182.223202,12.027603 180.90757,11.9620142 179.609082,12.1555156 C179.337721,12.1959539 178.825508,13.3402572 179.243309,13.5532113 C181.840064,14.8767818 182.586423,13.15837 183.302095,10.7578198" id="Path-54"></path>
                                <path d="M169.470718,20.4104221 C166.426,21.7228687 168.570437,23.7013588 171.457183,22.7020682 C172.078776,22.4868941 172.403145,20.4712281 172.032305,20.0827361 C171.567639,19.595953 170.81267,19.9553027 170.202852,19.891586 L169.470718,20.4104221 Z" id="Path-55"></path>
                                <path d="M168.023665,45.7530806 C166.716605,45.7530806 165.373942,45.3828249 164.102485,45.7530806 C163.799494,45.8413134 163.973165,46.5486841 164.102485,46.8949513 C164.256022,47.3060615 164.558492,47.6459589 164.886956,47.8535765 C165.10372,47.9905898 165.422345,48.0300236 165.61909,47.8535765 C166.635165,46.9423305 167.889336,44.4114364 165.775514,44.4114364" id="Path-56"></path>
                                <path d="M152.784022,56.7187456 C152.784022,57.7621668 152.491245,58.8688431 152.784022,59.8490091 C153.098798,60.9028231 157.485075,56.9332799 153.770785,56.1431393 L152.784022,56.7187456 Z" id="Path-57"></path>
                                <path d="M134.813044,31.8313729 C134.813044,31.9915327 133.876265,39.1026255 137.322881,35.2656082 C139.323377,33.0385141 136.03362,31.228714 134.610163,33.4690842" id="Path-58"></path>
                                <path d="M128.34839,55.8650374 C128.34839,60.4368374 131.347966,58.7179128 130.845291,55.7141294 C130.544277,53.9153987 127.499233,54.2589322 127.499233,56.2811124" id="Path-59"></path>
                                <path d="M176.290569,36.9851575 C174.983509,36.9851575 173.640846,36.6149018 172.369389,36.9851575 C172.066398,37.0733903 172.240069,37.780761 172.369389,38.1270282 C172.522927,38.5381384 172.825397,38.8780358 173.153861,39.0856534 C173.370624,39.2226667 173.689249,39.2621006 173.885995,39.0856534 C174.902069,38.1744074 176.156241,35.6435134 174.042418,35.6435134" id="Path-56"></path>
                                <path d="M56.8575518,37.2137918 C56.8575518,38.8059912 56.6751329,40.4138725 56.8575518,41.99039 C56.8939705,42.3051315 57.0945524,41.3789071 57.3215306,41.2236335 C57.8698541,40.8485308 58.5261741,40.7719638 59.0992341,40.456877 C59.2339779,40.3827906 59.3977317,40.2534898 59.4126698,40.0738581 C59.5060502,38.9509451 59.9315834,37.6215015 59.4126698,36.6877696 C59.0602666,36.0536562 58.1581431,36.6877696 57.5308797,36.6877696 L56.8575518,37.2137918 Z" id="Path-60"></path>
                                <path d="M56.2336344,15.2939842 C56.2336344,16.8861835 56.0512156,18.4940649 56.2336344,20.0705823 C56.2700532,20.3853238 56.470635,19.4590994 56.6976133,19.3038258 C57.2459368,18.9287231 57.9022568,18.8521561 58.4753168,18.5370694 C58.6100606,18.4629829 58.7738144,18.3336822 58.7887524,18.1540504 C58.8821329,17.0311374 59.307666,15.7016938 58.7887524,14.7679619 C58.4363493,14.1338486 57.5342258,14.7679619 56.9069624,14.7679619 L56.2336344,15.2939842 Z" id="Path-60" transform="translate(57.597064, 17.310747) rotate(66.000000) translate(-57.597064, -17.310747) "></path>
                                <path d="M81.9470742,34.8828901 C81.9470742,35.9476301 81.5573433,37.1248204 81.9470742,38.0771099 C82.6845713,39.8791499 86.0603119,34.4998712 82.9403065,34.4998712 L81.9470742,34.8828901 Z" id="Path-61"></path>
                                <path d="M69.5112854,52.5163166 C69.5112854,54.0202008 71.6806846,54.9783803 71.9158602,53.4109856 C72.0863095,52.2749785 72.1896766,51.1157901 72.1775467,49.9609408 C72.1457432,46.9330559 68.7319746,47.2774034 69.0931752,51.6863225 L69.5112854,52.5163166 Z" id="Path-62"></path>
                                <path d="M92.2453206,34.0951909 C94.109572,35.5735137 94.1187533,29.9373715 93.754869,29.9272551 C90.5863079,29.8391654 88.5826377,32.7590379 93.219735,33.1854311" id="Path-63"></path>
                                <path d="M103.280815,37.9277987 C102.956098,42.0462017 106.247657,42.1472648 106.632753,39.8371445 C106.941203,37.986815 105.292926,34.8184343 103.914155,37.3457249 L103.280815,37.9277987 Z" id="Path-64"></path>
                                <path d="M64.119906,10.6709944 C63.7951887,14.7893974 67.0867476,14.8904605 67.4718444,12.5803401 C67.7802941,10.7300107 66.1320167,7.56162998 64.7532459,10.0889206 L64.119906,10.6709944 Z" id="Path-64"></path>
                                <path d="M122.098495,6.19905236 C122.098495,8.30901272 120.307711,11.3960128 120.687153,11.7186928 C122.646503,13.3849379 123.450146,10.2558601 122.830629,8.71562324 C122.469868,7.818703 121.561445,6.5428735 120.582478,6.99096016 C120.484638,7.03574309 120.582478,7.24630611 120.582478,7.37397908" id="Path-65"></path>
                                <path d="M180.933836,56.2264981 C179.518613,56.2264981 180.184367,57.8762432 181.149066,58.1430299 C183.010557,58.6578237 183.014223,56.7547546 181.764176,56.0504387 L180.933836,56.2264981 Z" id="Path-66"></path>
                                <path d="M196.88083,52.4322393 C196.88083,53.1937259 196.664595,54.0025291 196.88083,54.7166993 C197.060426,55.3098574 197.500631,55.8161495 197.978737,56.0583434 C200.552848,57.3623087 199.942273,49.8950399 197.769388,52.5443424 L196.88083,52.4322393 Z" id="Path-67"></path>
                                <path d="M186.759597,42.4488049 C186.759597,44.8492693 190.075158,45.267282 188.850736,41.7460047 C188.69397,41.2951649 188.039696,41.8510173 187.648155,41.7460047 C187.305656,41.6541454 187.020892,41.3627463 186.70726,41.171117" id="Path-68"></path>
                            </g>
                        </g>
                    </g>
                </g>
            </g>
        </g>
    </g>
</svg>